<svg width="700" viewBox="0 0 1006 982" fill="none" xmlns="http://www.w3.org/2000/svg">
  <style>
    path {
      fill: #000;
    }
    @media (prefers-color-scheme: dark) {
      path {
        fill: #fff;
      }
    }
  </style>
<path d="M503 0C225.092 0 0 225.427 0 503.466C0 725.957 144.109 914.631 343.926 981.13C369.076 985.871 378.298 970.306 378.298 956.922C378.298 944.964 377.879 913.288 377.669 871.332C237.751 901.708 208.242 803.784 208.242 803.784C185.355 745.676 152.283 730.152 152.283 730.152C106.72 698.937 155.804 699.567 155.804 699.567C206.314 703.091 232.847 751.424 232.847 751.424C277.698 828.412 350.591 806.176 379.346 793.295C383.873 760.738 396.825 738.543 411.203 725.957C299.495 713.37 182.086 670.072 182.086 477.16C182.086 422.199 201.577 377.306 233.853 342.063C228.194 329.351 211.218 278.165 238.254 208.813C238.254 208.813 280.381 195.303 376.579 260.418C416.819 249.216 459.574 243.678 502.329 243.426C545.084 243.678 587.839 249.216 628.079 260.418C723.649 195.303 765.776 208.813 765.776 208.813C792.812 278.165 775.836 329.351 770.806 342.063C802.872 377.306 822.363 422.199 822.363 477.16C822.363 670.575 704.787 713.16 592.869 725.537C610.474 740.641 626.822 771.52 626.822 818.678C626.822 886.059 626.193 940.182 626.193 956.544C626.193 969.76 634.996 985.493 660.774 980.459C862.016 914.421 1006 725.621 1006 503.466C1006 225.427 780.782 0 503 0Z" fill="#2B3137"/>
</svg>
