<svg width="15" height="15" viewBox="0 0 20 20" fill="none" xmlns="http://www.w3.org/2000/svg">
<path d="M9.0005 14.8979C10.5918 14.8979 12.1179 14.2657 13.2431 13.1405C14.3684 12.0153 15.0005 10.4892 15.0005 8.89786C15.0005 7.30656 14.3684 5.78044 13.2431 4.65522C12.1179 3.53 10.5918 2.89786 9.0005 2.89786C7.4092 2.89786 5.88308 3.53 4.75786 4.65522C3.63264 5.78044 3.0005 7.30656 3.0005 8.89786C3.0005 10.4892 3.63264 12.0153 4.75786 13.1405C5.88308 14.2657 7.4092 14.8979 9.0005 14.8979ZM15.3205 13.8039L18.9005 17.3839C18.9959 17.4762 19.072 17.5866 19.1244 17.7086C19.1767 17.8307 19.2042 17.9619 19.2052 18.0947C19.2063 18.2274 19.1809 18.3591 19.1305 18.482C19.0802 18.6048 19.0058 18.7164 18.9119 18.8103C18.8179 18.9041 18.7062 18.9783 18.5833 19.0284C18.4604 19.0786 18.3287 19.1038 18.1959 19.1026C18.0631 19.1014 17.9319 19.0737 17.8099 19.0212C17.688 18.9687 17.5777 18.8924 17.4855 18.7969L13.9055 15.2169C12.298 16.4647 10.2753 17.053 8.24926 16.8621C6.22322 16.6711 4.34611 15.7152 3.00005 14.1889C1.654 12.6627 0.940188 10.6808 1.00393 8.64678C1.06767 6.61276 1.90417 4.67948 3.34315 3.2405C4.78213 1.80153 6.71541 0.965024 8.74943 0.901283C10.7834 0.837542 12.7653 1.55135 14.2916 2.89741C15.8178 4.24346 16.7737 6.12057 16.9647 8.14661C17.1557 10.1727 16.5674 12.1953 15.3195 13.8029L15.3205 13.8039Z" fill="white" stroke="white"/>
</svg>
